<?xml version="1.0" encoding="utf-8"?>
<!-- Generator: Adobe Illustrator 16.0.2, SVG Export Plug-In . SVG Version: 6.00 Build 0)  -->
<!DOCTYPE svg PUBLIC "-//W3C//DTD SVG 1.1//EN" "http://www.w3.org/Graphics/SVG/1.1/DTD/svg11.dtd">
<svg version="1.1" id="Слой_1" xmlns="http://www.w3.org/2000/svg" xmlns:xlink="http://www.w3.org/1999/xlink" x="0px" y="0px"
	 width="162px" height="24px" viewBox="0 0 162 24" enable-background="new 0 0 162 24" xml:space="preserve">
<path fill="#332F2E" d="M18.002,0C5.279,0,0.012,5.505,0.012,16.367L0,23.994L9.087,24c12.723,0,17.991-5.506,17.991-16.37L27.113,0
	H18.002z M17.986,5.97l3.18,0.02L21.158,7.63c0,5.69-1.763,7.349-2.342,7.892c-1.767,1.662-5.035,2.506-9.713,2.508l-3.176-0.019
	l0.004-1.645c0-5.688,1.762-7.345,2.342-7.89C10.039,6.815,13.307,5.972,17.986,5.97z"/>
<g enable-background="new    ">
	<path fill="#332F2E" d="M41.839,17.54c-0.272,0.247-0.516,0.471-0.732,0.669c-0.216,0.197-0.505,0.396-0.869,0.594
		c-0.355,0.19-0.702,0.334-1.039,0.434s-0.808,0.148-1.413,0.148c-1.127,0-2.064-0.413-2.81-1.237
		c-0.746-0.827-1.118-1.867-1.118-3.122c0-1.033,0.189-1.866,0.568-2.502c0.378-0.637,0.923-1.141,1.634-1.512
		c0.719-0.38,1.578-0.645,2.577-0.793c0.999-0.148,2.073-0.264,3.224-0.347V9.797c0-0.768-0.259-1.298-0.777-1.592
		c-0.519-0.293-1.295-0.439-2.333-0.439c-0.469,0-1.018,0.093-1.646,0.278c-0.628,0.186-1.241,0.423-1.839,0.712h-0.341V5.4
		c0.394-0.124,1.029-0.271,1.907-0.44s1.763-0.254,2.656-0.254c2.194,0,3.793,0.398,4.796,1.195
		c1.003,0.798,1.504,2.013,1.504,3.648v9.463h-3.95V17.54z M41.839,15.384v-2.899c-0.673,0.075-1.218,0.138-1.635,0.193
		c-0.416,0.053-0.825,0.159-1.226,0.315c-0.348,0.132-0.619,0.332-0.812,0.601c-0.193,0.269-0.29,0.626-0.29,1.072
		c0,0.651,0.161,1.1,0.482,1.343s0.796,0.366,1.425,0.366c0.348,0,0.704-0.087,1.067-0.26C41.215,15.94,41.544,15.697,41.839,15.384
		z"/>
	<path fill="#332F2E" d="M52.85,19.013h-4.018v-4.868h4.018V19.013z"/>
	<path fill="#332F2E" d="M68.753,19.013h-4.722l-3.451-6.058l-0.613,0.905v5.152h-3.973V-0.262h3.973v10.802l3.768-5.438h4.688
		l-4.46,5.996L68.753,19.013z"/>
	<path fill="#332F2E" d="M77.028,17.54c-0.272,0.247-0.516,0.471-0.732,0.669c-0.216,0.197-0.505,0.396-0.868,0.594
		c-0.356,0.19-0.702,0.334-1.039,0.434c-0.336,0.1-0.808,0.148-1.413,0.148c-1.128,0-2.064-0.413-2.81-1.237
		c-0.746-0.827-1.118-1.867-1.118-3.122c0-1.033,0.189-1.866,0.568-2.502c0.378-0.637,0.923-1.141,1.635-1.512
		c0.719-0.38,1.578-0.645,2.576-0.793c0.999-0.148,2.074-0.264,3.224-0.347V9.797c0-0.768-0.259-1.298-0.777-1.592
		c-0.519-0.293-1.296-0.439-2.333-0.439c-0.469,0-1.018,0.093-1.646,0.278c-0.628,0.186-1.241,0.423-1.839,0.712h-0.341V5.4
		c0.394-0.124,1.029-0.271,1.907-0.44c0.878-0.169,1.764-0.254,2.656-0.254c2.194,0,3.793,0.398,4.796,1.195
		c1.003,0.798,1.504,2.013,1.504,3.648v9.463h-3.951V17.54z M77.028,15.384v-2.899c-0.673,0.075-1.218,0.138-1.634,0.193
		c-0.417,0.053-0.825,0.159-1.226,0.315c-0.348,0.132-0.619,0.332-0.812,0.601c-0.193,0.269-0.29,0.626-0.29,1.072
		c0,0.651,0.161,1.1,0.482,1.343c0.322,0.243,0.796,0.366,1.425,0.366c0.348,0,0.704-0.087,1.067-0.26
		C76.404,15.94,76.733,15.697,77.028,15.384z"/>
	<path fill="#332F2E" d="M92.479,9.202h-0.329c-0.151-0.058-0.371-0.101-0.658-0.13c-0.288-0.029-0.605-0.043-0.954-0.043
		c-0.416,0-0.854,0.066-1.311,0.199c-0.458,0.132-0.902,0.289-1.334,0.471v9.314H83.92V5.102h3.973v1.995
		c0.182-0.182,0.434-0.411,0.755-0.688c0.321-0.276,0.614-0.497,0.88-0.662c0.288-0.19,0.622-0.354,1.005-0.489
		c0.382-0.137,0.743-0.205,1.083-0.205c0.129,0,0.272,0.004,0.432,0.012s0.303,0.021,0.432,0.037V9.202z"/>
	<path fill="#332F2E" d="M106.498,11.866c0,2.222-0.517,4.012-1.55,5.376c-1.033,1.362-2.307,2.044-3.819,2.044
		c-0.637,0-1.188-0.079-1.658-0.236c-0.469-0.156-0.969-0.398-1.498-0.73v5.798H94V5.102h3.973v1.449
		c0.583-0.544,1.177-0.987,1.782-1.325c0.605-0.339,1.306-0.508,2.1-0.508c1.477,0,2.618,0.641,3.429,1.921
		C106.093,7.918,106.498,9.661,106.498,11.866z M102.434,11.953c0-1.354-0.19-2.337-0.573-2.948
		c-0.382-0.612-0.979-0.917-1.788-0.917c-0.355,0-0.709,0.062-1.061,0.186c-0.353,0.124-0.698,0.31-1.039,0.558v6.998
		c0.212,0.101,0.445,0.17,0.698,0.212c0.254,0.04,0.555,0.063,0.902,0.063c0.969,0,1.688-0.347,2.157-1.036
		C102.199,14.378,102.434,13.34,102.434,11.953z"/>
	<path fill="#332F2E" d="M115.658,17.54c-0.272,0.247-0.517,0.471-0.732,0.669c-0.215,0.197-0.505,0.396-0.868,0.594
		c-0.355,0.19-0.702,0.334-1.038,0.434c-0.337,0.1-0.809,0.148-1.414,0.148c-1.127,0-2.064-0.413-2.81-1.237
		c-0.744-0.827-1.117-1.867-1.117-3.122c0-1.033,0.188-1.866,0.567-2.502c0.378-0.637,0.923-1.141,1.635-1.512
		c0.719-0.38,1.577-0.645,2.577-0.793c0.998-0.148,2.072-0.264,3.224-0.347V9.797c0-0.768-0.26-1.298-0.778-1.592
		c-0.519-0.293-1.296-0.439-2.333-0.439c-0.47,0-1.018,0.093-1.646,0.278c-0.627,0.186-1.24,0.423-1.839,0.712h-0.34V5.4
		c0.394-0.124,1.029-0.271,1.907-0.44s1.763-0.254,2.656-0.254c2.194,0,3.793,0.398,4.796,1.195
		c1.003,0.798,1.504,2.013,1.504,3.648v9.463h-3.95V17.54z M115.658,15.384v-2.899c-0.674,0.075-1.218,0.138-1.635,0.193
		c-0.416,0.053-0.824,0.159-1.226,0.315c-0.348,0.132-0.619,0.332-0.812,0.601c-0.193,0.269-0.29,0.626-0.29,1.072
		c0,0.651,0.161,1.1,0.482,1.343c0.322,0.243,0.797,0.366,1.425,0.366c0.348,0,0.703-0.087,1.066-0.26
		C115.034,15.94,115.363,15.697,115.658,15.384z"/>
	<path fill="#332F2E" d="M128.803,19.385c-1.051,0-2.014-0.145-2.889-0.434c-0.874-0.289-1.632-0.734-2.276-1.338
		c-0.635-0.604-1.131-1.361-1.486-2.271c-0.355-0.914-0.533-1.989-0.533-3.228c0-1.33,0.192-2.461,0.578-3.395
		c0.387-0.934,0.909-1.701,1.567-2.304c0.635-0.579,1.383-1.006,2.241-1.282c0.859-0.277,1.754-0.416,2.686-0.416
		c0.703,0,1.407,0.089,2.11,0.267c0.704,0.177,1.412,0.46,2.123,0.848v3.716h-0.511c-0.159-0.165-0.354-0.347-0.585-0.544
		c-0.23-0.199-0.481-0.38-0.755-0.546c-0.287-0.173-0.612-0.32-0.976-0.439s-0.769-0.18-1.215-0.18
		c-1.014,0-1.799,0.387-2.355,1.158c-0.556,0.772-0.834,1.811-0.834,3.116c0,1.395,0.296,2.436,0.891,3.122
		c0.594,0.686,1.384,1.027,2.367,1.027c0.499,0,0.938-0.062,1.316-0.186c0.378-0.124,0.704-0.271,0.977-0.446
		c0.265-0.174,0.491-0.352,0.681-0.537c0.189-0.187,0.353-0.354,0.488-0.502h0.511v3.716c-0.228,0.106-0.489,0.23-0.789,0.371
		c-0.299,0.141-0.604,0.257-0.914,0.349c-0.385,0.113-0.747,0.203-1.084,0.265C129.801,19.354,129.356,19.385,128.803,19.385z"/>
	<path fill="#332F2E" d="M146.75,19.013h-3.996v-6.899c0-0.562-0.021-1.121-0.063-1.679c-0.041-0.557-0.118-0.968-0.232-1.232
		c-0.137-0.313-0.333-0.539-0.591-0.675c-0.257-0.136-0.601-0.204-1.033-0.204c-0.324,0-0.654,0.066-0.986,0.198
		c-0.334,0.132-0.689,0.343-1.067,0.632v9.86h-3.974V-0.262h3.974v6.9c0.651-0.603,1.284-1.074,1.901-1.413
		c0.616-0.339,1.3-0.508,2.049-0.508c1.302,0,2.297,0.448,2.985,1.344c0.689,0.896,1.033,2.195,1.033,3.896V19.013z"/>
</g>
</svg>
