<?xml version="1.0" encoding="utf-8"?>
<!-- Generator: Adobe Illustrator 24.1.1, SVG Export Plug-In . SVG Version: 6.00 Build 0)  -->
<svg version="1.1" id="Слой_1" xmlns="http://www.w3.org/2000/svg" xmlns:xlink="http://www.w3.org/1999/xlink" x="0px" y="0px"
	 viewBox="0 0 1203.84 317.04" style="enable-background:new 0 0 1203.84 317.04;" xml:space="preserve">
<style type="text/css">
	.st0{fill:white;}
	.st1{fill:none;stroke:white;stroke-width:25;}
	.st2{fill:#FFFFFF;}
</style>
<rect y="4.57" class="st0" width="25.91" height="292.21"/>
<rect x="50.87" y="4.57" class="st0" width="25.91" height="292.21"/>
<rect x="100.66" y="4.57" class="st0" width="25.91" height="292.21"/>
<circle class="st1" cx="224.09" cy="151.33" r="41.23"/>
<circle class="st1" cx="223.84" cy="148.99" r="89.84"/>
<circle class="st1" cx="223.5" cy="149.74" r="137.79"/>
<rect x="351.85" y="7.83" class="st0" width="25.91" height="292.21"/>
<rect x="403.68" y="7.83" class="st0" width="25.91" height="292.21"/>
<rect x="429.17" y="-73.37" transform="matrix(-1.836970e-16 1 -1 -1.836970e-16 459.0354 -425.2199)" class="st0" width="25.91" height="180.55"/>
<rect x="414.38" y="45.91" transform="matrix(-1.836970e-16 1 -1 -1.836970e-16 578.3192 -276.3617)" class="st0" width="25.91" height="210.13"/>
<rect x="413.23" y="-34.1" transform="matrix(-1.836970e-16 1 -1 -1.836970e-16 498.304 -354.0789)" class="st0" width="25.91" height="212.43"/>
<rect x="75.75" y="4.64" class="st2" width="25.91" height="292.21"/>
<rect x="539.59" y="-541.52" transform="matrix(-1.836970e-16 1 -1 -1.836970e-16 544.2218 -541.5229)" class="st2" width="6.57" height="1085.74"/>
<rect x="262.47" y="80.56" transform="matrix(-1.836970e-16 1 -1 -1.836970e-16 426.4086 -124.4511)" class="st2" width="25.91" height="140.84"/>
<g>
	<path class="st0" d="M590.81,90.07V12.98H603v77.09H590.81z"/>
	<path class="st0" d="M628.28,42.02h0.2c0.7-1.15,1.58-2.29,2.64-3.4c1.06-1.11,2.27-2.09,3.63-2.94c1.36-0.84,2.86-1.53,4.5-2.04
		c1.64-0.52,3.39-0.78,5.25-0.78c1.76,0,3.46,0.23,5.1,0.69c1.64,0.46,3.14,1.18,4.5,2.16c1.36,0.98,2.56,2.25,3.61,3.8
		c1.04,1.55,1.87,3.41,2.46,5.56c0.33,1.19,0.56,2.49,0.67,3.89s0.17,3.02,0.17,4.87v36.24h-11.79V55.96c0-1.5-0.05-2.78-0.15-3.86
		c-0.1-1.08-0.28-2.02-0.55-2.82c-0.6-1.77-1.5-3.03-2.71-3.8c-1.21-0.77-2.68-1.15-4.4-1.15c-2.29,0-4.49,0.63-6.59,1.87
		c-2.11,1.25-3.97,3.06-5.6,5.44v38.43h-11.79V34.24h9.75L628.28,42.02z"/>
	<path class="st0" d="M703.42,90.01c-1.33,0.46-2.91,0.83-4.75,1.09c-1.84,0.27-3.56,0.4-5.15,0.4c-4.05,0-7.36-0.76-9.93-2.28
		c-2.57-1.52-4.39-3.7-5.45-6.54c-0.76-2.04-1.14-4.8-1.14-8.3V45.47h-9.01V34.24H677V18.62h11.79v15.61h13.93v11.24h-13.93v27.14
		c0,2.15,0.28,3.75,0.85,4.78c1,1.77,2.97,2.65,5.92,2.65c1.36,0,2.71-0.12,4.06-0.38c1.34-0.25,2.61-0.57,3.81-0.95V90.01z"/>
	<path class="st0" d="M737.46,80.51c2.29,0,4.68-0.27,7.17-0.81c2.49-0.54,5.01-1.31,7.56-2.3v10.89c-1.53,0.77-3.87,1.5-7.02,2.19
		c-3.15,0.69-6.42,1.04-9.8,1.04c-3.42,0-6.66-0.51-9.73-1.53c-3.07-1.02-5.75-2.66-8.04-4.93c-2.29-2.27-4.11-5.2-5.45-8.82
		c-1.34-3.61-2.02-7.99-2.02-13.14c0-5.07,0.63-9.51,1.89-13.31c1.26-3.8,2.95-6.95,5.08-9.45c2.12-2.5,4.55-4.37,7.29-5.62
		c2.74-1.25,5.57-1.87,8.48-1.87c3.05,0,5.86,0.54,8.43,1.61c2.57,1.08,4.79,2.77,6.67,5.07s3.33,5.27,4.38,8.9
		c1.04,3.63,1.57,7.92,1.57,12.88c-0.03,1.92-0.08,3.55-0.15,4.9h-31.6c0.17,2.57,0.66,4.77,1.49,6.6s1.92,3.3,3.26,4.44
		c1.34,1.13,2.91,1.96,4.7,2.48C733.43,80.25,735.37,80.51,737.46,80.51z M732.73,43.52c-1.49,0-2.82,0.32-3.98,0.95
		c-1.16,0.63-2.17,1.5-3.01,2.59c-0.85,1.1-1.52,2.37-2.02,3.83c-0.5,1.46-0.83,3.02-1,4.67h18.96c0-1.65-0.19-3.21-0.57-4.67
		c-0.38-1.46-0.95-2.74-1.69-3.83c-0.75-1.09-1.68-1.96-2.79-2.59C735.53,43.83,734.23,43.52,732.73,43.52z"/>
	<path class="st0" d="M765.38,90.07V6.64h11.79v83.43H765.38z"/>
	<path class="st0" d="M791.1,90.07V6.64h11.79v83.43H791.1z"/>
	<path class="st0" d="M816.33,6.64h12.39v14.81h-12.39V6.64z M816.63,34.24h11.79v55.83h-11.79V34.24z"/>
	<path class="st0" d="M872.96,91.51c0-0.77,0.01-1.72,0.03-2.85c0.02-1.13,0.06-2.08,0.12-2.85h-0.1c-0.73,0.69-1.57,1.37-2.51,2.04
		c-0.95,0.67-1.98,1.29-3.11,1.84c-1.13,0.56-2.37,1-3.73,1.33c-1.36,0.33-2.75,0.49-4.18,0.49c-2.55,0-5.05-0.53-7.49-1.58
		c-2.44-1.06-4.6-2.73-6.49-5.01s-3.42-5.21-4.58-8.79c-1.16-3.57-1.74-7.87-1.74-12.91c0-5.03,0.59-9.44,1.77-13.22
		s2.75-6.94,4.7-9.48c1.96-2.54,4.2-4.45,6.74-5.73s5.15-1.93,7.84-1.93c2.95,0,5.57,0.72,7.86,2.16c2.29,1.44,4.16,3.27,5.62,5.5
		h0.2l0.5-6.28h10.35v56.87c0,3.26-0.23,6.07-0.7,8.41c-0.46,2.34-1.14,4.42-2.04,6.22c-1.06,2.11-2.41,3.96-4.06,5.53
		c-1.64,1.57-3.52,2.88-5.62,3.92s-4.42,1.81-6.94,2.33c-2.52,0.52-5.19,0.78-8.01,0.78c-1.59,0-3.15-0.07-4.68-0.2
		c-1.53-0.14-2.96-0.33-4.3-0.58c-1.34-0.25-2.57-0.54-3.68-0.87c-1.11-0.33-2.05-0.66-2.81-1.01v-11.12
		c2.19,0.84,4.49,1.49,6.89,1.93c2.41,0.44,4.93,0.66,7.59,0.66c5.27,0,9.36-1.18,12.24-3.54c2.89-2.36,4.33-5.95,4.33-10.75V91.51z
		 M862.41,80.62c1.19,0,2.32-0.17,3.38-0.52c1.06-0.35,2.04-0.79,2.94-1.33c0.9-0.54,1.7-1.13,2.41-1.79
		c0.71-0.65,1.32-1.31,1.82-1.96V50.08c-1.26-1.73-2.82-3.17-4.68-4.32c-1.86-1.15-3.83-1.75-5.92-1.79c-0.73,0-1.5,0.11-2.31,0.32
		c-0.81,0.21-1.63,0.59-2.46,1.12c-0.83,0.54-1.62,1.26-2.36,2.16c-0.75,0.9-1.4,2.04-1.97,3.43c-0.56,1.38-1.02,3.04-1.37,4.96
		c-0.35,1.92-0.52,4.15-0.52,6.68c0,2.8,0.23,5.31,0.7,7.52c0.46,2.21,1.16,4.09,2.09,5.65c0.93,1.55,2.08,2.75,3.46,3.57
		C858.99,80.21,860.59,80.62,862.41,80.62z"/>
	<path class="st0" d="M922.52,80.51c2.29,0,4.68-0.27,7.17-0.81c2.49-0.54,5.01-1.31,7.56-2.3v10.89c-1.53,0.77-3.87,1.5-7.02,2.19
		c-3.15,0.69-6.42,1.04-9.8,1.04c-3.42,0-6.66-0.51-9.73-1.53c-3.07-1.02-5.75-2.66-8.04-4.93c-2.29-2.27-4.11-5.2-5.45-8.82
		c-1.34-3.61-2.02-7.99-2.02-13.14c0-5.07,0.63-9.51,1.89-13.31c1.26-3.8,2.95-6.95,5.08-9.45c2.12-2.5,4.55-4.37,7.29-5.62
		c2.74-1.25,5.57-1.87,8.48-1.87c3.05,0,5.86,0.54,8.43,1.61c2.57,1.08,4.79,2.77,6.67,5.07s3.33,5.27,4.38,8.9
		c1.04,3.63,1.57,7.92,1.57,12.88c-0.03,1.92-0.08,3.55-0.15,4.9h-31.6c0.17,2.57,0.66,4.77,1.49,6.6s1.92,3.3,3.26,4.44
		c1.34,1.13,2.91,1.96,4.7,2.48C918.49,80.25,920.43,80.51,922.52,80.51z M917.79,43.52c-1.49,0-2.82,0.32-3.98,0.95
		c-1.16,0.63-2.17,1.5-3.01,2.59c-0.85,1.1-1.52,2.37-2.02,3.83c-0.5,1.46-0.83,3.02-1,4.67h18.96c0-1.65-0.19-3.21-0.57-4.67
		c-0.38-1.46-0.95-2.74-1.69-3.83c-0.75-1.09-1.68-1.96-2.79-2.59C920.59,43.83,919.29,43.52,917.79,43.52z"/>
	<path class="st0" d="M960.79,42.02h0.2c0.7-1.15,1.58-2.29,2.64-3.4c1.06-1.11,2.27-2.09,3.63-2.94c1.36-0.84,2.86-1.53,4.5-2.04
		c1.64-0.52,3.39-0.78,5.25-0.78c1.76,0,3.46,0.23,5.1,0.69c1.64,0.46,3.14,1.18,4.5,2.16c1.36,0.98,2.56,2.25,3.61,3.8
		c1.04,1.55,1.87,3.41,2.46,5.56c0.33,1.19,0.56,2.49,0.67,3.89s0.17,3.02,0.17,4.87v36.24h-11.79V55.96c0-1.5-0.05-2.78-0.15-3.86
		c-0.1-1.08-0.28-2.02-0.55-2.82c-0.6-1.77-1.5-3.03-2.71-3.8c-1.21-0.77-2.68-1.15-4.4-1.15c-2.29,0-4.49,0.63-6.59,1.87
		s-3.97,3.06-5.6,5.44v38.43h-11.79V34.24h9.75L960.79,42.02z"/>
	<path class="st0" d="M1041.2,88.86c-1.49,0.73-3.32,1.35-5.47,1.87c-2.16,0.52-4.43,0.78-6.82,0.78c-3.48,0-6.73-0.58-9.75-1.73
		c-3.02-1.15-5.66-2.9-7.91-5.24c-2.26-2.34-4.03-5.31-5.32-8.9c-1.29-3.59-1.94-7.79-1.94-12.59c0-5.38,0.75-9.99,2.24-13.83
		c1.49-3.84,3.43-6.96,5.8-9.36c2.37-2.4,5.04-4.17,8.01-5.3c2.97-1.13,5.9-1.7,8.78-1.7c2.16,0,4.23,0.22,6.22,0.66
		s3.8,1.05,5.42,1.81v11.12c-1.46-0.73-3.01-1.32-4.65-1.76c-1.64-0.44-3.41-0.66-5.3-0.66c-1.89,0-3.7,0.34-5.42,1.01
		c-1.73,0.67-3.25,1.74-4.58,3.2c-1.33,1.46-2.38,3.39-3.16,5.79c-0.78,2.4-1.17,5.29-1.17,8.67c0,2.46,0.3,4.77,0.9,6.94
		c0.6,2.17,1.47,4.02,2.61,5.56c1.14,1.54,2.6,2.78,4.38,3.72c1.77,0.94,3.87,1.41,6.29,1.41c2.16,0,4.11-0.25,5.87-0.75
		c1.76-0.5,3.42-1.11,4.98-1.84V88.86z"/>
	<path class="st0" d="M1076.24,80.51c2.29,0,4.68-0.27,7.17-0.81c2.49-0.54,5.01-1.31,7.56-2.3v10.89c-1.53,0.77-3.87,1.5-7.02,2.19
		c-3.15,0.69-6.42,1.04-9.8,1.04c-3.42,0-6.66-0.51-9.73-1.53c-3.07-1.02-5.75-2.66-8.04-4.93c-2.29-2.27-4.11-5.2-5.45-8.82
		c-1.34-3.61-2.02-7.99-2.02-13.14c0-5.07,0.63-9.51,1.89-13.31c1.26-3.8,2.95-6.95,5.08-9.45c2.12-2.5,4.55-4.37,7.29-5.62
		c2.74-1.25,5.57-1.87,8.48-1.87c3.05,0,5.86,0.54,8.43,1.61c2.57,1.08,4.79,2.77,6.67,5.07s3.33,5.27,4.38,8.9
		c1.04,3.63,1.57,7.92,1.57,12.88c-0.03,1.92-0.08,3.55-0.15,4.9h-31.6c0.17,2.57,0.66,4.77,1.49,6.6s1.92,3.3,3.26,4.44
		c1.34,1.13,2.91,1.96,4.7,2.48C1072.21,80.25,1074.15,80.51,1076.24,80.51z M1071.51,43.52c-1.49,0-2.82,0.32-3.98,0.95
		c-1.16,0.63-2.17,1.5-3.01,2.59c-0.85,1.1-1.52,2.37-2.02,3.83c-0.5,1.46-0.83,3.02-1,4.67h18.96c0-1.65-0.19-3.21-0.57-4.67
		c-0.38-1.46-0.95-2.74-1.69-3.83c-0.75-1.09-1.68-1.96-2.79-2.59C1074.3,43.83,1073,43.52,1071.51,43.52z"/>
	<path class="st0" d="M623.21,126.46c-3.32,0-6.38,0.63-9.18,1.9s-5.21,3.11-7.21,5.53c-2.01,2.42-3.58,5.41-4.7,8.96
		c-1.13,3.55-1.69,7.62-1.69,12.19c0,4.53,0.51,8.52,1.54,11.95c1.03,3.44,2.5,6.31,4.43,8.61c1.92,2.3,4.27,4.04,7.04,5.21
		c2.77,1.17,5.91,1.76,9.43,1.76c2.52,0,5.09-0.23,7.71-0.69c2.62-0.46,5.08-1.13,7.37-2.02v12.16c-2.32,0.77-4.83,1.37-7.51,1.81
		c-2.69,0.44-5.47,0.66-8.36,0.66c-5.64,0-10.6-0.93-14.88-2.79c-4.28-1.86-7.85-4.49-10.72-7.89c-2.87-3.4-5.03-7.47-6.47-12.21
		c-1.44-4.74-2.16-9.98-2.16-15.7c0-5.88,0.77-11.33,2.31-16.36c1.54-5.03,3.76-9.39,6.67-13.08c2.9-3.69,6.54-6.59,10.9-8.7
		c4.36-2.11,9.3-3.19,14.8-3.23c2.82,0,5.49,0.22,8.01,0.66c2.52,0.44,4.79,1.07,6.82,1.87v11.98c-2.65-0.96-5.13-1.63-7.41-2.02
		C627.64,126.66,625.4,126.46,623.21,126.46z"/>
	<path class="st0" d="M694.86,165.18c0,4.38-0.56,8.37-1.69,11.98c-1.13,3.61-2.75,6.7-4.85,9.28c-2.11,2.57-4.65,4.56-7.64,5.96
		c-2.99,1.4-6.32,2.1-10,2.1c-3.78,0-7.17-0.7-10.18-2.1c-3-1.4-5.55-3.39-7.64-5.96c-2.09-2.57-3.69-5.67-4.8-9.28
		c-1.11-3.61-1.67-7.61-1.67-11.98s0.56-8.37,1.69-11.98c1.13-3.61,2.74-6.7,4.85-9.28c2.11-2.57,4.65-4.56,7.64-5.96
		c2.99-1.4,6.32-2.1,10-2.1c3.78,0,7.17,0.7,10.18,2.1c3,1.4,5.55,3.39,7.64,5.96c2.09,2.57,3.69,5.67,4.8,9.28
		C694.31,156.81,694.86,160.8,694.86,165.18z M682.67,165.18c0-2.96-0.3-5.57-0.9-7.84c-0.6-2.27-1.43-4.17-2.49-5.7
		c-1.06-1.54-2.34-2.69-3.83-3.46c-1.49-0.77-3.12-1.15-4.88-1.15c-1.73,0-3.33,0.38-4.8,1.15c-1.48,0.77-2.75,1.92-3.81,3.46
		c-1.06,1.54-1.89,3.44-2.49,5.7c-0.6,2.27-0.9,4.88-0.9,7.84c0,2.96,0.3,5.57,0.9,7.84c0.6,2.27,1.43,4.16,2.51,5.68
		s2.36,2.67,3.83,3.46c1.48,0.79,3.09,1.18,4.85,1.18c1.76,0,3.37-0.39,4.83-1.18s2.72-1.94,3.78-3.46s1.89-3.41,2.49-5.68
		C682.37,170.75,682.67,168.14,682.67,165.18z"/>
	<path class="st0" d="M767.42,159.08c0-1.19-0.03-2.3-0.1-3.34c-0.07-1.04-0.18-1.94-0.35-2.71c-0.37-1.69-1.08-3.05-2.14-4.09
		s-2.55-1.57-4.48-1.61c-1.03,0-2.09,0.17-3.18,0.52s-2.18,0.83-3.26,1.47c-1.08,0.63-2.11,1.4-3.08,2.3s-1.87,1.91-2.66,3.02v38.43
		h-11.79v-33.99c0-1.19-0.03-2.3-0.1-3.34c-0.07-1.04-0.18-1.94-0.35-2.71c-0.37-1.69-1.07-3.05-2.12-4.09s-2.55-1.57-4.5-1.61
		c-1.03,0-2.09,0.17-3.18,0.52s-2.18,0.83-3.26,1.47c-1.08,0.63-2.11,1.4-3.08,2.3c-0.98,0.9-1.87,1.91-2.66,3.02v38.43h-11.79
		v-55.83h9.75l1.09,7.78h0.2c0.7-1.15,1.58-2.29,2.64-3.4c1.06-1.11,2.26-2.09,3.61-2.94c1.34-0.84,2.82-1.53,4.43-2.04
		c1.61-0.52,3.31-0.78,5.1-0.78c3.18,0,6.05,0.82,8.58,2.45c2.54,1.63,4.47,4.18,5.8,7.63h0.2c0.93-1.5,1.97-2.86,3.11-4.09
		c1.14-1.23,2.41-2.29,3.81-3.17c1.39-0.88,2.89-1.57,4.5-2.07c1.61-0.5,3.33-0.75,5.15-0.75c3.45,0.04,6.34,0.87,8.68,2.51
		s4.14,3.87,5.4,6.71c0.33,0.73,0.61,1.53,0.85,2.39c0.23,0.86,0.42,1.83,0.57,2.91c0.15,1.08,0.26,2.27,0.32,3.57
		c0.07,1.31,0.1,2.8,0.1,4.49v34.63h-11.79V159.08z"/>
	<path class="st0" d="M816.28,194.51c-2.59,0-4.94-0.55-7.04-1.64c-2.11-1.1-3.86-2.45-5.25-4.06h-0.2c0.03,0.77,0.07,1.85,0.1,3.26
		c0.03,1.4,0.05,2.93,0.05,4.58v23.22h-11.79v-82.62h10.35l0.5,6.28h0.2c1.46-2.23,3.33-4.06,5.62-5.5
		c2.29-1.44,4.94-2.16,7.96-2.16c2.62,0,5.2,0.57,7.74,1.7s4.79,2.87,6.74,5.21c1.96,2.34,3.52,5.3,4.7,8.87
		c1.18,3.57,1.77,7.82,1.77,12.73c0,5.19-0.63,9.67-1.89,13.45c-1.26,3.78-2.92,6.91-4.98,9.39c-2.06,2.48-4.34,4.31-6.84,5.5
		S818.94,194.51,816.28,194.51z M814.74,146.8c-2.06,0.04-4.01,0.63-5.87,1.76c-1.86,1.13-3.5,2.66-4.93,4.58v24.89
		c0.5,0.65,1.09,1.31,1.79,1.96c0.7,0.65,1.48,1.25,2.34,1.79c0.86,0.54,1.82,0.98,2.86,1.33s2.13,0.52,3.26,0.52
		c1.82,0,3.45-0.45,4.88-1.35c1.43-0.9,2.61-2.18,3.56-3.83c0.95-1.65,1.67-3.62,2.16-5.91c0.5-2.28,0.75-4.83,0.75-7.63
		c0-3-0.26-5.63-0.77-7.89c-0.51-2.27-1.24-4.15-2.19-5.65c-0.95-1.5-2.08-2.63-3.41-3.4C817.84,147.19,816.36,146.8,814.74,146.8z"
		/>
	<path class="st0" d="M873.01,183.5c2.29,0,4.68-0.27,7.17-0.81c2.49-0.54,5.01-1.31,7.56-2.3v10.89c-1.53,0.77-3.87,1.5-7.02,2.19
		c-3.15,0.69-6.42,1.04-9.8,1.04c-3.42,0-6.66-0.51-9.73-1.53c-3.07-1.02-5.75-2.66-8.04-4.93c-2.29-2.27-4.11-5.2-5.45-8.82
		c-1.34-3.61-2.02-7.99-2.02-13.14c0-5.07,0.63-9.51,1.89-13.31c1.26-3.8,2.95-6.95,5.08-9.45c2.12-2.5,4.55-4.37,7.29-5.62
		c2.74-1.25,5.57-1.87,8.48-1.87c3.05,0,5.86,0.54,8.43,1.61c2.57,1.08,4.79,2.77,6.67,5.07s3.33,5.27,4.38,8.9
		c1.04,3.63,1.57,7.92,1.57,12.88c-0.03,1.92-0.08,3.55-0.15,4.9h-31.6c0.17,2.57,0.66,4.77,1.49,6.6s1.92,3.3,3.26,4.44
		c1.34,1.13,2.91,1.96,4.7,2.48C868.98,183.25,870.92,183.5,873.01,183.5z M868.28,146.52c-1.49,0-2.82,0.32-3.98,0.95
		c-1.16,0.63-2.17,1.5-3.01,2.59c-0.85,1.1-1.52,2.37-2.02,3.83c-0.5,1.46-0.83,3.02-1,4.67h18.96c0-1.65-0.19-3.21-0.57-4.67
		c-0.38-1.46-0.95-2.74-1.69-3.83c-0.75-1.09-1.68-1.96-2.79-2.59C871.08,146.83,869.78,146.52,868.28,146.52z"/>
	<path class="st0" d="M911.28,145.02h0.2c0.7-1.15,1.58-2.29,2.64-3.4c1.06-1.11,2.27-2.09,3.63-2.94c1.36-0.84,2.86-1.53,4.5-2.04
		c1.64-0.52,3.39-0.78,5.25-0.78c1.76,0,3.46,0.23,5.1,0.69c1.64,0.46,3.14,1.18,4.5,2.16c1.36,0.98,2.56,2.25,3.61,3.8
		c1.04,1.55,1.87,3.41,2.46,5.56c0.33,1.19,0.56,2.49,0.67,3.89s0.17,3.02,0.17,4.87v36.24h-11.79v-34.11c0-1.5-0.05-2.78-0.15-3.86
		c-0.1-1.08-0.28-2.02-0.55-2.82c-0.6-1.77-1.5-3.03-2.71-3.8c-1.21-0.77-2.68-1.15-4.4-1.15c-2.29,0-4.49,0.63-6.59,1.87
		s-3.97,3.06-5.6,5.44v38.43h-11.79v-55.83h9.75L911.28,145.02z"/>
	<path class="st0" d="M954.47,166.28c0-4.88,0.58-9.23,1.74-13.05c1.16-3.82,2.74-7.03,4.75-9.62c2.01-2.59,4.3-4.53,6.89-5.82
		c2.59-1.29,5.27-1.93,8.06-1.93c1.29,0,2.52,0.13,3.68,0.4c1.16,0.27,2.26,0.63,3.28,1.09s1.99,0.98,2.89,1.56
		c0.9,0.58,1.72,1.17,2.49,1.79h0.1c-0.03-0.77-0.06-1.85-0.07-3.25c-0.02-1.4-0.03-2.93-0.03-4.58v-23.22h11.79v66.84
		c0,3.69,0.03,6.86,0.1,9.51c0.07,2.65,0.13,5.01,0.2,7.09H989.7l-0.5-5.93H989c-0.7,0.96-1.54,1.9-2.51,2.82s-2.06,1.72-3.23,2.39
		c-1.18,0.67-2.47,1.2-3.88,1.58c-1.41,0.38-2.94,0.58-4.6,0.58c-2.62,0-5.13-0.54-7.54-1.61c-2.41-1.08-4.56-2.74-6.47-4.98
		c-1.91-2.25-3.43-5.19-4.58-8.82C955.04,175.47,954.47,171.19,954.47,166.28z M977.71,183.62c1.16,0,2.26-0.17,3.31-0.52
		s2.03-0.81,2.96-1.38s1.75-1.21,2.46-1.9c0.71-0.69,1.32-1.36,1.82-2.02v-26.5c-1.39-1.31-2.95-2.39-4.68-3.25
		c-1.72-0.87-3.55-1.3-5.47-1.3c-1.23,0-2.51,0.29-3.86,0.86c-1.34,0.58-2.57,1.56-3.68,2.94c-1.11,1.38-2.04,3.3-2.79,5.76
		c-0.75,2.46-1.12,5.59-1.12,9.39c0,5.61,0.94,9.99,2.81,13.14C971.35,181.99,974.09,183.58,977.71,183.62z"/>
	<path class="st0" d="M1013.78,109.64h12.39v14.81h-12.39V109.64z M1014.08,137.24h11.79v55.83h-11.79V137.24z"/>
	<path class="st0" d="M1060.41,194.51c-4.84,0-8.86-0.95-12.04-2.85c-3.18-1.9-5.59-4.46-7.22-7.69c-0.86-1.73-1.5-3.63-1.92-5.7
		c-0.42-2.07-0.62-4.38-0.62-6.91v-34.11h11.79v32.67c0,1.88,0.12,3.51,0.35,4.87c0.23,1.36,0.58,2.54,1.04,3.54
		c0.8,1.69,1.92,2.95,3.38,3.77c1.46,0.83,3.2,1.24,5.22,1.24c2.12,0,3.94-0.46,5.45-1.38c1.51-0.92,2.64-2.32,3.41-4.21
		c0.76-1.8,1.14-4.32,1.14-7.55v-32.96h11.79v34.11c0,4.53-0.68,8.35-2.04,11.47c-0.76,1.77-1.75,3.37-2.96,4.81
		c-1.21,1.44-2.64,2.67-4.28,3.69c-1.64,1.02-3.5,1.81-5.57,2.36C1065.28,194.23,1062.97,194.51,1060.41,194.51z"/>
	<path class="st0" d="M1156.75,159.08c0-1.19-0.03-2.3-0.1-3.34c-0.07-1.04-0.18-1.94-0.35-2.71c-0.37-1.69-1.08-3.05-2.14-4.09
		s-2.55-1.57-4.48-1.61c-1.03,0-2.09,0.17-3.18,0.52s-2.18,0.83-3.26,1.47c-1.08,0.63-2.11,1.4-3.08,2.3s-1.87,1.91-2.66,3.02v38.43
		h-11.79v-33.99c0-1.19-0.03-2.3-0.1-3.34c-0.07-1.04-0.18-1.94-0.35-2.71c-0.37-1.69-1.07-3.05-2.12-4.09s-2.55-1.57-4.5-1.61
		c-1.03,0-2.09,0.17-3.18,0.52s-2.18,0.83-3.26,1.47c-1.08,0.63-2.11,1.4-3.08,2.3c-0.98,0.9-1.87,1.91-2.66,3.02v38.43h-11.79
		v-55.83h9.75l1.09,7.78h0.2c0.7-1.15,1.58-2.29,2.64-3.4c1.06-1.11,2.26-2.09,3.61-2.94c1.34-0.84,2.82-1.53,4.43-2.04
		c1.61-0.52,3.31-0.78,5.1-0.78c3.18,0,6.05,0.82,8.58,2.45c2.54,1.63,4.47,4.18,5.8,7.63h0.2c0.93-1.5,1.97-2.86,3.11-4.09
		c1.14-1.23,2.41-2.29,3.81-3.17c1.39-0.88,2.89-1.57,4.5-2.07c1.61-0.5,3.33-0.75,5.15-0.75c3.45,0.04,6.34,0.87,8.68,2.51
		s4.14,3.87,5.4,6.71c0.33,0.73,0.61,1.53,0.85,2.39c0.23,0.86,0.42,1.83,0.57,2.91c0.15,1.08,0.26,2.27,0.32,3.57
		c0.07,1.31,0.1,2.8,0.1,4.49v34.63h-11.79V159.08z"/>
	<path class="st0" d="M588.92,296.07v-58.8h9.3v58.8H588.92z"/>
	<path class="st0" d="M635.08,245.27c-2.53,0-4.86,0.48-7,1.45c-2.14,0.97-3.97,2.37-5.5,4.22c-1.53,1.85-2.73,4.12-3.59,6.83
		c-0.86,2.71-1.29,5.81-1.29,9.29c0,3.46,0.39,6.5,1.18,9.12s1.91,4.81,3.38,6.57c1.47,1.76,3.26,3.08,5.37,3.98
		c2.11,0.89,4.51,1.34,7.19,1.34c1.92,0,3.88-0.18,5.88-0.53s3.87-0.86,5.62-1.54v9.27c-1.77,0.59-3.68,1.05-5.73,1.38
		c-2.05,0.34-4.17,0.5-6.38,0.5c-4.3,0-8.08-0.71-11.35-2.13c-3.26-1.42-5.99-3.43-8.18-6.02c-2.19-2.59-3.83-5.7-4.93-9.32
		s-1.65-7.61-1.65-11.98c0-4.48,0.59-8.64,1.76-12.48s2.87-7.16,5.09-9.98c2.21-2.81,4.98-5.02,8.31-6.64s7.09-2.43,11.29-2.46
		c2.15,0,4.19,0.17,6.11,0.5c1.92,0.34,3.66,0.81,5.2,1.43v9.14c-2.02-0.73-3.91-1.25-5.66-1.54S636.75,245.27,635.08,245.27z"/>
	<path class="st0" d="M681.11,296.07h-9.3v-58.8h32.34v9.01h-23.04v15.21h19.7v9.01h-19.7V296.07z"/>
	<path class="st0" d="M733.03,261.75h-0.76c-2.76,0-5.18,0.48-7.27,1.43c-2.09,0.95-3.7,2.41-4.84,4.37v28.52h-9v-42.58h7.44
		l0.83,5.93h0.15c1.06-2.17,2.52-3.87,4.38-5.12s4.09-1.87,6.7-1.87c0.91,0,1.69,0.06,2.35,0.18V261.75z"/>
	<path class="st0" d="M757.29,288.77c1.75,0,3.57-0.21,5.46-0.62s3.82-1,5.77-1.76v8.31c-1.16,0.59-2.95,1.14-5.35,1.67
		c-2.4,0.53-4.9,0.79-7.48,0.79c-2.61,0-5.08-0.39-7.42-1.17c-2.34-0.78-4.38-2.03-6.13-3.76s-3.13-3.97-4.16-6.72
		c-1.02-2.75-1.54-6.09-1.54-10.02c0-3.87,0.48-7.25,1.44-10.15c0.96-2.9,2.25-5.3,3.87-7.21s3.47-3.33,5.56-4.28
		c2.09-0.95,4.24-1.43,6.47-1.43c2.33,0,4.47,0.41,6.43,1.23c1.96,0.82,3.66,2.11,5.09,3.87c1.43,1.76,2.54,4.02,3.34,6.79
		c0.8,2.77,1.2,6.04,1.2,9.82c-0.03,1.46-0.06,2.71-0.11,3.74h-24.1c0.13,1.96,0.51,3.64,1.14,5.03c0.63,1.39,1.46,2.52,2.49,3.38
		s2.22,1.49,3.59,1.89C754.21,288.58,755.69,288.77,757.29,288.77z M753.68,260.56c-1.14,0-2.15,0.24-3.04,0.72
		c-0.89,0.48-1.65,1.14-2.3,1.98c-0.65,0.83-1.16,1.81-1.54,2.92c-0.38,1.11-0.63,2.3-0.76,3.56h14.46c0-1.26-0.15-2.45-0.44-3.56
		s-0.72-2.09-1.29-2.92c-0.57-0.84-1.28-1.49-2.13-1.98C755.81,260.8,754.82,260.56,753.68,260.56z"/>
	<path class="st0" d="M797.14,288.77c1.75,0,3.57-0.21,5.46-0.62s3.82-1,5.77-1.76v8.31c-1.16,0.59-2.95,1.14-5.35,1.67
		c-2.4,0.53-4.9,0.79-7.48,0.79c-2.61,0-5.08-0.39-7.42-1.17c-2.34-0.78-4.38-2.03-6.13-3.76s-3.13-3.97-4.16-6.72
		c-1.02-2.75-1.54-6.09-1.54-10.02c0-3.87,0.48-7.25,1.44-10.15c0.96-2.9,2.25-5.3,3.87-7.21s3.47-3.33,5.56-4.28
		c2.09-0.95,4.24-1.43,6.47-1.43c2.33,0,4.47,0.41,6.43,1.23c1.96,0.82,3.66,2.11,5.09,3.87c1.43,1.76,2.54,4.02,3.34,6.79
		c0.8,2.77,1.2,6.04,1.2,9.82c-0.03,1.46-0.06,2.71-0.11,3.74h-24.1c0.13,1.96,0.51,3.64,1.14,5.03c0.63,1.39,1.46,2.52,2.49,3.38
		s2.22,1.49,3.59,1.89C794.06,288.58,795.54,288.77,797.14,288.77z M793.53,260.56c-1.14,0-2.15,0.24-3.04,0.72
		c-0.89,0.48-1.65,1.14-2.3,1.98c-0.65,0.83-1.16,1.81-1.54,2.92c-0.38,1.11-0.63,2.3-0.76,3.56h14.46c0-1.26-0.15-2.45-0.44-3.56
		s-0.72-2.09-1.29-2.92c-0.57-0.84-1.28-1.49-2.13-1.98C795.66,260.8,794.67,260.56,793.53,260.56z"/>
	<path class="st0" d="M816.15,275.63c0-3.72,0.44-7.04,1.33-9.95c0.89-2.91,2.09-5.36,3.63-7.34c1.53-1.98,3.28-3.46,5.26-4.44
		c1.97-0.98,4.02-1.47,6.15-1.47c0.99,0,1.92,0.1,2.81,0.31c0.88,0.21,1.72,0.48,2.5,0.83c0.78,0.35,1.52,0.75,2.2,1.19
		c0.68,0.44,1.32,0.89,1.9,1.36H842c-0.03-0.59-0.04-1.41-0.06-2.48c-0.01-1.07-0.02-2.23-0.02-3.49v-17.71h9v50.98
		c0,2.81,0.03,5.23,0.08,7.25c0.05,2.02,0.1,3.82,0.15,5.41h-8.12l-0.38-4.53h-0.15c-0.53,0.73-1.17,1.45-1.92,2.15
		s-1.57,1.31-2.47,1.82s-1.88,0.92-2.96,1.21c-1.08,0.29-2.25,0.44-3.51,0.44c-2,0-3.92-0.41-5.75-1.23
		c-1.83-0.82-3.48-2.09-4.93-3.8c-1.46-1.71-2.62-3.96-3.49-6.72C816.59,282.64,816.15,279.38,816.15,275.63z M833.88,288.86
		c0.88,0,1.73-0.13,2.52-0.4c0.8-0.26,1.55-0.62,2.26-1.05c0.71-0.44,1.33-0.92,1.88-1.45c0.54-0.53,1-1.04,1.38-1.54v-20.21
		c-1.06-1-2.25-1.82-3.57-2.48c-1.32-0.66-2.71-0.99-4.17-0.99c-0.94,0-1.92,0.22-2.94,0.66c-1.03,0.44-1.96,1.19-2.81,2.24
		c-0.85,1.05-1.56,2.52-2.13,4.39s-0.85,4.26-0.85,7.16c0,4.28,0.71,7.62,2.14,10.02C829.02,287.62,831.12,288.83,833.88,288.86z"/>
	<path class="st0" d="M896.46,274.8c0,3.34-0.43,6.39-1.29,9.14c-0.86,2.75-2.09,5.11-3.7,7.08c-1.61,1.96-3.55,3.48-5.83,4.55
		c-2.28,1.07-4.82,1.6-7.63,1.6c-2.88,0-5.47-0.54-7.76-1.6c-2.29-1.07-4.23-2.58-5.83-4.55c-1.59-1.96-2.82-4.32-3.66-7.08
		s-1.27-5.8-1.27-9.14s0.43-6.39,1.29-9.14c0.86-2.75,2.09-5.11,3.7-7.08c1.61-1.96,3.55-3.48,5.83-4.55
		c2.28-1.07,4.82-1.6,7.63-1.6c2.88,0,5.47,0.54,7.76,1.6s4.23,2.58,5.83,4.55c1.59,1.96,2.81,4.32,3.66,7.08
		S896.46,271.46,896.46,274.8z M887.16,274.8c0-2.26-0.23-4.25-0.68-5.98c-0.46-1.73-1.09-3.18-1.9-4.35
		c-0.81-1.17-1.78-2.05-2.92-2.64s-2.38-0.88-3.72-0.88c-1.32,0-2.54,0.29-3.66,0.88c-1.13,0.59-2.09,1.46-2.9,2.64
		c-0.81,1.17-1.44,2.62-1.9,4.35c-0.46,1.73-0.68,3.72-0.68,5.98s0.23,4.25,0.68,5.98c0.46,1.73,1.09,3.17,1.92,4.33
		c0.82,1.16,1.8,2.04,2.92,2.64c1.13,0.6,2.36,0.9,3.7,0.9c1.34,0,2.57-0.3,3.68-0.9c1.11-0.6,2.07-1.48,2.88-2.64
		c0.81-1.16,1.44-2.6,1.9-4.33C886.94,279.05,887.16,277.06,887.16,274.8z"/>
	<path class="st0" d="M951.8,270.14c0-0.91-0.03-1.76-0.08-2.55c-0.05-0.79-0.14-1.48-0.27-2.07c-0.28-1.29-0.82-2.33-1.63-3.12
		s-1.95-1.2-3.42-1.23c-0.78,0-1.59,0.13-2.43,0.4s-1.66,0.64-2.49,1.12c-0.82,0.48-1.61,1.07-2.35,1.76
		c-0.75,0.69-1.42,1.46-2.03,2.31v29.31h-9v-25.93c0-0.91-0.03-1.76-0.08-2.55s-0.14-1.48-0.27-2.07c-0.28-1.29-0.82-2.33-1.61-3.12
		s-1.94-1.2-3.43-1.23c-0.78,0-1.59,0.13-2.43,0.4s-1.66,0.64-2.49,1.12c-0.82,0.48-1.61,1.07-2.35,1.76
		c-0.75,0.69-1.42,1.46-2.03,2.31v29.31h-9v-42.58h7.44l0.83,5.93h0.15c0.53-0.88,1.2-1.74,2.01-2.59s1.73-1.6,2.75-2.24
		c1.02-0.64,2.15-1.16,3.38-1.56c1.23-0.39,2.52-0.59,3.89-0.59c2.43,0,4.61,0.62,6.55,1.87c1.94,1.25,3.41,3.19,4.42,5.82h0.15
		c0.71-1.14,1.5-2.18,2.37-3.12s1.84-1.74,2.9-2.42s2.21-1.2,3.43-1.58c1.23-0.38,2.54-0.57,3.93-0.57
		c2.63,0.03,4.84,0.67,6.62,1.91c1.78,1.25,3.16,2.95,4.12,5.12c0.25,0.56,0.47,1.17,0.65,1.82c0.18,0.66,0.32,1.4,0.44,2.22
		c0.11,0.82,0.2,1.73,0.25,2.72s0.08,2.14,0.08,3.43v26.41h-9V270.14z"/>
</g>
<rect x="325.94" y="7.83" class="st2" width="25.91" height="292.21"/>
<rect x="300.02" y="4.57" class="st0" width="25.91" height="295.47"/>
<rect x="406.23" y="-34.1" transform="matrix(-1.836970e-16 1 -1 -1.836970e-16 491.304 -347.0789)" class="st0" width="25.91" height="212.43"/>
<rect x="401.34" y="-88.96" transform="matrix(-1.836970e-16 1 -1 -1.836970e-16 431.2032 -396.703)" class="st0" width="25.23" height="212.43"/>
<rect x="387.99" y="57.53" transform="matrix(-1.836970e-16 1 -1 -1.836970e-16 551.6902 -250.2073)" class="st0" width="25.91" height="186.42"/>
</svg>
